# Blender v2.91.0 OBJ File: 'Home.blend'
# www.blender.org
mtllib Home.mtl
o Cylinder_Cylinder.001
v 0.000000 -1.250000 -1.900000
v 0.000000 1.250000 -1.900000
v 1.807007 -1.250000 -0.587132
v 1.807007 1.250000 -0.587132
v 1.116792 -1.250000 1.537132
v 1.116792 1.250000 1.537132
v -1.116792 -1.250000 1.537132
v -1.116792 1.250000 1.537132
v -1.807007 -1.250000 -0.587133
v -1.807007 1.250000 -0.587133
vt 1.000000 0.500000
vt 1.000000 1.000000
vt 0.800000 1.000000
vt 0.800000 0.500000
vt 0.600000 1.000000
vt 0.600000 0.500000
vt 0.400000 1.000000
vt 0.400000 0.500000
vt 0.478254 0.324164
vt 0.250000 0.490000
vt 0.021746 0.324164
vt 0.108932 0.055836
vt 0.391068 0.055836
vt 0.200000 1.000000
vt 0.200000 0.500000
vt 0.000000 1.000000
vt 0.000000 0.500000
vt 0.750000 0.490000
vt 0.978254 0.324164
vt 0.891068 0.055836
vt 0.608932 0.055836
vt 0.521746 0.324164
vn 0.5878 0.0000 -0.8090
vn 0.9511 0.0000 0.3090
vn -0.0000 0.0000 1.0000
vn 0.0000 1.0000 0.0000
vn -0.9511 0.0000 0.3090
vn -0.5878 0.0000 -0.8090
vn 0.0000 -1.0000 -0.0000
usemtl None
s off
f 1/1/1 2/2/1 4/3/1 3/4/1
f 3/4/2 4/3/2 6/5/2 5/6/2
f 5/6/3 6/5/3 8/7/3 7/8/3
f 4/9/4 2/10/4 10/11/4 8/12/4 6/13/4
f 7/8/5 8/7/5 10/14/5 9/15/5
f 9/15/6 10/14/6 2/16/6 1/17/6
f 1/18/7 3/19/7 5/20/7 7/21/7 9/22/7
o Cone
v 0.000000 1.230000 -3.000000
v 2.853170 1.230000 -0.927051
v 1.763355 1.230000 2.427051
v -1.763356 1.230000 2.427051
v -2.853169 1.230000 -0.927051
v 0.000000 2.270000 0.000000
vt 0.250000 0.490000
vt 0.250000 0.250000
vt 0.478254 0.324164
vt 0.391068 0.055836
vt 0.108932 0.055836
vt 0.750000 0.490000
vt 0.978254 0.324164
vt 0.891068 0.055836
vt 0.608932 0.055836
vt 0.521746 0.324164
vt 0.021746 0.324164
vn 0.2315 0.9192 -0.3186
vn 0.3746 0.9192 0.1217
vn -0.0000 0.9192 0.3939
vn 0.0000 -1.0000 0.0000
vn -0.3746 0.9192 0.1217
vn -0.2315 0.9192 -0.3186
usemtl None
s off
f 11/23/8 16/24/8 12/25/8
f 12/25/9 16/24/9 13/26/9
f 13/26/10 16/24/10 14/27/10
f 11/28/11 12/29/11 13/30/11 14/31/11 15/32/11
f 14/27/12 16/24/12 15/33/12
f 15/33/13 16/24/13 11/23/13
